<svg height="512pt" viewBox="0 -34 512 511" width="512pt" xmlns="http://www.w3.org/2000/svg"><path d="m463 222.28125c0 114.320312-92.675781 207-207 207s-207-92.679688-207-207c0-114.324219 92.675781-207 207-207s207 92.675781 207 207zm0 0" fill="#f0c48a"/><g fill="#4c4372"><path d="m121.140625 314.523438h-54.789063c-3.238281 0-5.863281-2.625-5.863281-5.863282 0-3.234375 2.625-5.859375 5.863281-5.859375h48.925782v-90.746093c0-3.238282 2.625-5.863282 5.863281-5.863282s5.863281 2.625 5.863281 5.863282v96.605468c0 3.238282-2.625 5.863282-5.863281 5.863282zm0 0"/><path d="m442.890625 314.523438h-54.789063c-3.238281 0-5.863281-2.625-5.863281-5.863282v-96.605468c0-3.238282 2.625-5.863282 5.863281-5.863282 3.238282 0 5.863282 2.625 5.863282 5.863282v90.746093h48.925781c3.238281 0 5.863281 2.625 5.863281 5.859375 0 3.238282-2.625 5.863282-5.863281 5.863282zm0 0"/><path d="m178.464844 383.679688c-3.238282 0-5.863282-2.625-5.863282-5.863282v-117.457031c0-3.238281 2.625-5.863281 5.863282-5.863281 3.234375 0 5.859375 2.625 5.859375 5.863281v117.457031c0 3.238282-2.625 5.863282-5.859375 5.863282zm0 0"/><path d="m333.535156 383.679688c-3.234375 0-5.859375-2.625-5.859375-5.863282v-117.457031c0-3.238281 2.625-5.863281 5.859375-5.863281 3.238282 0 5.863282 2.625 5.863282 5.863281v117.457031c0 3.238282-2.625 5.863282-5.863282 5.863282zm0 0"/></g><path d="m506.136719 308.660156c0 16.675782-13.515625 30.191406-30.191407 30.191406-16.671874 0-30.1875-13.515624-30.1875-30.191406 0-16.671875 13.515626-30.1875 30.1875-30.1875 16.675782 0 30.191407 13.515625 30.191407 30.1875zm0 0" fill="#d3e6f8"/><path d="m363.726562 408.007812c0 16.671876-13.515624 30.191407-30.191406 30.191407-16.671875 0-30.1875-13.519531-30.1875-30.191407 0-16.675781 13.515625-30.191406 30.1875-30.191406 16.675782 0 30.191406 13.515625 30.191406 30.191406zm0 0" fill="#a4cff2"/><path d="m208.652344 408.007812c0 16.671876-13.515625 30.191407-30.1875 30.191407-16.675782 0-30.191406-13.519531-30.191406-30.191407 0-16.675781 13.515624-30.191406 30.191406-30.191406 16.671875 0 30.1875 13.515625 30.1875 30.191406zm0 0" fill="#a4cff2"/><path d="m66.246094 308.660156c0 16.675782-13.519532 30.191406-30.191406 30.191406-16.675782 0-30.191407-13.515624-30.191407-30.191406 0-16.671875 13.515625-30.1875 30.191407-30.1875 16.671874 0 30.191406 13.515625 30.191406 30.1875zm0 0" fill="#d3e6f8"/><path d="m475.945312 344.714844c-19.878906 0-36.050781-16.171875-36.050781-36.050782 0-19.882812 16.171875-36.054687 36.050781-36.054687 19.882813 0 36.054688 16.175781 36.054688 36.054687 0 19.878907-16.175781 36.050782-36.054688 36.050782zm0-60.378906c-13.414062 0-24.328124 10.910156-24.328124 24.324218 0 13.417969 10.914062 24.328125 24.328124 24.328125 13.417969 0 24.328126-10.910156 24.328126-24.328125 0-13.414062-10.910157-24.324218-24.328126-24.324218zm0 0" fill="#4c4372"/><path d="m333.535156 444.058594c-19.878906 0-36.050781-16.171875-36.050781-36.050782 0-19.878906 16.171875-36.054687 36.050781-36.054687 19.882813 0 36.054688 16.175781 36.054688 36.054687 0 19.878907-16.171875 36.050782-36.054688 36.050782zm0-60.378906c-13.414062 0-24.324218 10.914062-24.324218 24.328124 0 13.414063 10.910156 24.328126 24.324218 24.328126 13.417969 0 24.328125-10.914063 24.328125-24.328126 0-13.414062-10.910156-24.328124-24.328125-24.328124zm0 0" fill="#4c4372"/><path d="m178.464844 444.058594c-19.882813 0-36.054688-16.171875-36.054688-36.050782 0-19.878906 16.175782-36.054687 36.054688-36.054687s36.050781 16.175781 36.050781 36.054687c0 19.878907-16.171875 36.050782-36.050781 36.050782zm0-60.378906c-13.417969 0-24.328125 10.914062-24.328125 24.328124 0 13.414063 10.910156 24.328126 24.328125 24.328126 13.414062 0 24.324218-10.914063 24.324218-24.328126 0-13.414062-10.910156-24.328124-24.324218-24.328124zm0 0" fill="#4c4372"/><path d="m36.054688 344.714844c-19.878907 0-36.054688-16.171875-36.054688-36.050782 0-19.882812 16.175781-36.054687 36.054688-36.054687 19.878906 0 36.050781 16.175781 36.050781 36.054687 0 19.878907-16.171875 36.050782-36.050781 36.050782zm0-60.378906c-13.417969 0-24.328126 10.910156-24.328126 24.324218 0 13.417969 10.910157 24.328125 24.328126 24.328125 13.414062 0 24.328124-10.910156 24.328124-24.328125 0-13.414062-10.914062-24.324218-24.328124-24.324218zm0 0" fill="#4c4372"/><path d="m66.277344 39.449219c-44.121094 44.121093-44.121094 115.652343 0 159.769531l189.722656 189.722656 189.722656-189.722656c44.121094-44.117188 44.121094-115.648438 0-159.769531-44.117187-44.117188-115.648437-44.117188-159.765625 0l-29.957031 29.957031-29.957031-29.957031c-44.117188-44.117188-115.648438-44.117188-159.765625 0zm0 0" fill="#fd919e"/><path d="m445.722656 39.449219c-27.578125-27.578125-65.867187-37.917969-101.476562-31.015625 21.355468 4.140625 41.746094 14.476562 58.285156 31.015625 44.121094 44.121093 44.121094 115.648437 0 159.769531l-168.125 168.128906 21.59375 21.59375 189.722656-189.722656c44.121094-44.121094 44.121094-115.648438 0-159.769531zm0 0" fill="#e8677d"/><path d="m256 394.804688c-1.5 0-3-.574219-4.144531-1.71875l-189.722657-189.722657c-46.335937-46.332031-46.335937-121.722656 0-168.058593 22.441407-22.445313 52.285157-34.804688 84.027344-34.804688 31.742188 0 61.582032 12.359375 84.027344 34.804688l25.8125 25.8125 25.8125-25.8125c22.445312-22.445313 52.285156-34.804688 84.027344-34.804688 31.742187 0 61.585937 12.359375 84.027344 34.804688 46.335937 46.335937 46.335937 121.726562 0 168.058593l-189.722657 189.722657c-1.144531 1.144531-2.644531 1.71875-4.144531 1.71875zm-109.839844-382.578126c-28.609375 0-55.507812 11.140626-75.738281 31.371094-41.761719 41.761719-41.761719 109.714844 0 151.476563l185.578125 185.574219 185.578125-185.574219c41.761719-41.761719 41.761719-109.714844 0-151.476563-20.230469-20.230468-47.128906-31.371094-75.738281-31.371094s-55.507813 11.140626-75.738282 31.371094l-29.957031 29.953125c-2.289062 2.292969-6 2.292969-8.289062 0l-29.957031-29.953125c-20.230469-20.230468-47.128907-31.371094-75.738282-31.371094zm0 0" fill="#4c4372"/><path d="m259.84375 266.222656c-.039062 0-.074219 0-.113281 0-2.179688-.042968-4.15625-1.289062-5.128907-3.238281l-63.980468-127.847656-43.042969 67.242187c-1.078125 1.683594-2.9375 2.699219-4.9375 2.699219h-76.363281c-3.238282 0-5.863282-2.625-5.863282-5.859375 0-3.238281 2.625-5.863281 5.863282-5.863281h73.15625l46.875-73.234375c1.136718-1.773438 3.140625-2.8125 5.25-2.691406 2.105468.109374 3.988281 1.34375 4.929687 3.230468l63.605469 127.09375 60.730469-110.324218c1.054687-1.917969 3.070312-3.105469 5.277343-3.035157 2.183594.050781 4.160157 1.316407 5.125 3.28125l23.660157 48.285157h97.601562c3.238281 0 5.863281 2.625 5.863281 5.859374 0 3.238282-2.625 5.863282-5.863281 5.863282h-101.257812c-2.238281 0-4.28125-1.273438-5.265625-3.28125l-20.308594-41.441406-60.675781 110.226562c-1.03125 1.875-3 3.035156-5.136719 3.035156zm0 0" fill="#4c4372"/></svg>