<svg height="512pt" viewBox="-49 0 512 512" width="512pt" xmlns="http://www.w3.org/2000/svg"><path d="m414 256c0 114.324219-92.675781 207-207 207s-207-92.675781-207-207 92.675781-207 207-207 207 92.675781 207 207zm0 0" fill="#f0c48a"/><path d="m389.199219 506.136719h-325.777344c-21.328125 0-38.621094-17.289063-38.621094-38.621094v-423.03125c0-21.332031 17.292969-38.621094 38.621094-38.621094h325.777344zm0 0" fill="#d3e6f8"/><path d="m339.789062 5.863281h49.410157v423.03125h-49.410157zm0 0" fill="#a4cff2"/><path d="m389.199219 506.136719h-325.777344c-21.328125 0-38.621094-17.289063-38.621094-38.621094 0-21.328125 17.292969-38.621094 38.621094-38.621094h325.777344zm0 0" fill="#fff"/><path d="m339.789062 428.894531h49.410157v77.242188h-49.410157zm0 0" fill="#d3e6f8"/><path d="m86.5625 61.449219h253.226562v194.550781h-253.226562zm0 0" fill="#a4cff2"/><path d="m288.269531 61.449219h51.519531v194.550781h-51.519531zm0 0" fill="#7babf1"/><path d="m274.898438 230.679688h-123.445313c-8.300781 0-15.03125-6.730469-15.03125-15.035157v-89.210937c0-8.300782 6.726563-15.03125 15.03125-15.03125h123.445313c8.304687 0 15.035156 6.730468 15.035156 15.03125v89.210937c0 8.304688-6.730469 15.035157-15.035156 15.035157zm0 0" fill="#d3e6f8"/><path d="m274.898438 111.402344h-15.320313c8.304687 0 15.035156 6.730468 15.035156 15.03125v89.210937c0 8.304688-6.730469 15.035157-15.035156 15.035157h15.320313c8.304687 0 15.035156-6.730469 15.035156-15.035157v-89.210937c0-8.300782-6.730469-15.03125-15.035156-15.03125zm0 0" fill="#a4cff2"/><path d="m252.582031 208.550781h-78.808593c-4.882813 0-8.84375 3.957031-8.84375 8.839844v13.289063h96.492187v-13.289063c0-4.882813-3.957031-8.839844-8.839844-8.839844zm0 0" fill="#a4cff2"/><path d="m252.582031 208.550781h-15.320312c4.882812 0 8.839843 3.957031 8.839843 8.839844v13.289063h15.320313v-13.289063c0-4.882813-3.957031-8.839844-8.839844-8.839844zm0 0" fill="#7babf1"/><path d="m303.332031 197.914062h-13.398437v-53.746093h13.398437c4.0625 0 7.359375 3.292969 7.359375 7.355469v39.035156c0 4.0625-3.296875 7.355468-7.359375 7.355468zm0 0" fill="#7babf1"/><path d="m273.0625 171.039062c0 12.308594-9.976562 22.285157-22.28125 22.285157-12.308594 0-22.285156-9.976563-22.285156-22.285157 0-12.304687 9.976562-22.28125 22.285156-22.28125 12.304688 0 22.28125 9.976563 22.28125 22.28125zm0 0" fill="#fd919e"/><path d="m123.019531 197.914062h13.402344v-53.746093h-13.402344c-4.0625 0-7.355469 3.292969-7.355469 7.355469v39.035156c0 4.0625 3.292969 7.355468 7.355469 7.355468zm0 0" fill="#a4cff2"/><path d="m197.855469 171.039062c0 12.308594-9.976563 22.285157-22.285157 22.285157-12.304687 0-22.28125-9.976563-22.28125-22.285157 0-12.304687 9.976563-22.28125 22.28125-22.28125 12.308594 0 22.285157 9.976563 22.285157 22.28125zm0 0" fill="#fd919e"/><path d="m187.148438 230.679688h52.058593v25.320312h-52.058593zm0 0" fill="#7babf1"/><path d="m128.84375 98.222656c0 7.277344-5.902344 13.179688-13.179688 13.179688-7.28125 0-13.183593-5.902344-13.183593-13.179688 0-7.28125 5.902343-13.183594 13.183593-13.183594 7.277344 0 13.179688 5.902344 13.179688 13.183594zm0 0" fill="#fd919e"/><path d="m224.84375 85.039062h-23.335938c-14.558593 0-26.359374 11.804688-26.359374 26.363282h76.058593c0-14.558594-11.804687-26.363282-26.363281-26.363282zm0 0" fill="#7babf1"/><g fill="#4c4372"><path d="m389.199219 512h-325.777344c-24.527344 0-44.484375-19.953125-44.484375-44.484375v-423.03125c0-24.53125 19.957031-44.484375 44.484375-44.484375h325.777344c3.238281 0 5.863281 2.625 5.863281 5.863281v500.273438c0 3.238281-2.625 5.863281-5.863281 5.863281zm-325.777344-500.273438c-18.0625 0-32.757813 14.695313-32.757813 32.757813v423.03125c0 18.0625 14.695313 32.757813 32.757813 32.757813h319.914063v-488.546876zm0 0"/><path d="m389.199219 512h-325.777344c-24.527344 0-44.484375-19.953125-44.484375-44.484375 0-24.527344 19.957031-44.484375 44.484375-44.484375h325.777344c3.238281 0 5.863281 2.625 5.863281 5.863281v77.242188c0 3.238281-2.625 5.863281-5.863281 5.863281zm-325.777344-77.242188c-18.0625 0-32.757813 14.695313-32.757813 32.757813s14.695313 32.757813 32.757813 32.757813h319.914063v-65.515626zm0 0"/><path d="m339.789062 261.863281h-253.226562c-3.238281 0-5.863281-2.625-5.863281-5.863281v-194.550781c0-3.238281 2.625-5.863281 5.863281-5.863281h253.226562c3.238282 0 5.863282 2.625 5.863282 5.863281v194.550781c0 3.238281-2.625 5.863281-5.863282 5.863281zm-247.363281-11.726562h241.5v-182.824219h-241.5zm0 0"/><path d="m274.898438 236.539062h-123.445313c-11.523437 0-20.894531-9.371093-20.894531-20.894531v-89.210937c0-11.519532 9.371094-20.894532 20.894531-20.894532h123.445313c11.523437 0 20.898437 9.375 20.898437 20.894532v89.210937c0 11.523438-9.375 20.894531-20.898437 20.894531zm-123.445313-119.273437c-5.058594 0-9.171875 4.113281-9.171875 9.167969v89.210937c0 5.058594 4.113281 9.171875 9.171875 9.171875h123.445313c5.058593 0 9.171874-4.113281 9.171874-9.171875v-89.210937c0-5.054688-4.113281-9.167969-9.171874-9.167969zm0 0"/><path d="m261.421875 236.542969h-96.492187c-3.238282 0-5.863282-2.625-5.863282-5.863281v-13.289063c0-8.109375 6.597656-14.703125 14.703125-14.703125h78.8125c8.105469 0 14.703125 6.59375 14.703125 14.703125v13.289063c0 3.238281-2.625 5.863281-5.863281 5.863281zm-90.628906-11.726563h84.765625v-7.425781c0-1.640625-1.335938-2.980469-2.976563-2.980469h-78.8125c-1.640625 0-2.976562 1.339844-2.976562 2.980469zm0 0"/><path d="m303.332031 203.777344h-13.398437c-3.238282 0-5.863282-2.625-5.863282-5.863282v-53.746093c0-3.238281 2.625-5.863281 5.863282-5.863281h13.398437c7.289063 0 13.21875 5.929687 13.21875 13.21875v39.03125c.003907 7.292968-5.929687 13.222656-13.21875 13.222656zm-7.535156-11.726563h7.535156c.824219 0 1.496094-.671875 1.496094-1.496093v-39.03125c0-.824219-.671875-1.492188-1.496094-1.492188h-7.535156zm0 0"/><path d="m250.78125 199.1875c-15.519531 0-28.144531-12.628906-28.144531-28.148438 0-15.519531 12.625-28.144531 28.144531-28.144531s28.144531 12.625 28.144531 28.144531c0 15.519532-12.625 28.148438-28.144531 28.148438zm0-44.566406c-9.054688 0-16.421875 7.363281-16.421875 16.417968 0 9.054688 7.367187 16.421876 16.421875 16.421876s16.421875-7.367188 16.421875-16.421876c0-9.054687-7.367187-16.417968-16.421875-16.417968zm0 0"/><path d="m136.421875 203.777344h-13.402344c-7.289062 0-13.21875-5.929688-13.21875-13.21875v-39.035156c0-7.289063 5.929688-13.21875 13.21875-13.21875h13.402344c3.234375 0 5.859375 2.625 5.859375 5.863281v53.746093c0 3.238282-2.625 5.863282-5.859375 5.863282zm-13.402344-53.746094c-.824219 0-1.496093.667969-1.496093 1.492188v39.03125c0 .824218.671874 1.496093 1.496093 1.496093h7.539063v-42.019531zm0 0"/><path d="m175.570312 199.1875c-15.515624 0-28.144531-12.628906-28.144531-28.148438 0-15.519531 12.628907-28.144531 28.144531-28.144531 15.523438 0 28.148438 12.625 28.148438 28.144531 0 15.519532-12.625 28.148438-28.148438 28.148438zm0-44.566406c-9.050781 0-16.417968 7.363281-16.417968 16.417968 0 9.054688 7.363281 16.421876 16.417968 16.421876 9.058594 0 16.421876-7.367188 16.421876-16.421876 0-9.054687-7.367188-16.417968-16.421876-16.417968zm0 0"/><path d="m239.207031 261.863281h-52.0625c-3.238281 0-5.863281-2.625-5.863281-5.863281v-25.320312c0-3.238282 2.625-5.863282 5.863281-5.863282h52.0625c3.238281 0 5.863281 2.625 5.863281 5.863282v25.320312c0 3.238281-2.625 5.863281-5.863281 5.863281zm-46.199219-11.726562h40.335938v-13.59375h-40.335938zm0 0"/><path d="m115.660156 117.265625c-10.5 0-19.042968-8.542969-19.042968-19.042969 0-10.503906 8.542968-19.046875 19.042968-19.046875 10.503906 0 19.046875 8.542969 19.046875 19.046875 0 10.5-8.542969 19.042969-19.046875 19.042969zm0-26.363281c-4.03125 0-7.316406 3.285156-7.316406 7.320312s3.28125 7.316406 7.316406 7.316406 7.320313-3.28125 7.320313-7.316406-3.28125-7.320312-7.320313-7.320312zm0 0"/></g><path d="m323.871094 98.222656c0 7.277344-5.902344 13.179688-13.179688 13.179688-7.28125 0-13.183594-5.902344-13.183594-13.179688 0-7.28125 5.902344-13.183594 13.183594-13.183594 7.277344 0 13.179688 5.902344 13.179688 13.183594zm0 0" fill="#fd919e"/><path d="m310.691406 117.265625c-10.5 0-19.042968-8.542969-19.042968-19.042969 0-10.503906 8.542968-19.046875 19.042968-19.046875s19.042969 8.542969 19.042969 19.046875c0 10.5-8.542969 19.042969-19.042969 19.042969zm0-26.363281c-4.035156 0-7.320312 3.285156-7.320312 7.320312s3.28125 7.316406 7.320312 7.316406c4.035156 0 7.316406-3.28125 7.316406-7.316406s-3.28125-7.320312-7.316406-7.320312zm0 0" fill="#4c4372"/><path d="m251.207031 117.265625h-76.0625c-3.238281 0-5.863281-2.625-5.863281-5.863281 0-17.769532 14.457031-32.226563 32.226562-32.226563h23.335938c17.769531 0 32.222656 14.457031 32.222656 32.226563.003906 3.238281-2.621094 5.863281-5.859375 5.863281zm-69.34375-11.726563h62.625c-2.527343-8.453124-10.378906-14.636718-19.644531-14.636718h-23.335938c-9.265624 0-17.117187 6.183594-19.644531 14.636718zm0 0" fill="#4c4372"/><path d="m310.691406 157.386719c-3.238281 0-5.863281-2.625-5.863281-5.863281v-40.121094c0-3.238282 2.625-5.863282 5.863281-5.863282 3.238282 0 5.863282 2.625 5.863282 5.863282v40.121094c0 3.238281-2.625 5.863281-5.863282 5.863281zm0 0" fill="#4c4372"/><path d="m115.660156 157.386719c-3.234375 0-5.859375-2.625-5.859375-5.863281v-40.121094c0-3.238282 2.625-5.863282 5.859375-5.863282 3.238282 0 5.863282 2.625 5.863282 5.863282v40.121094c0 3.238281-2.625 5.863281-5.863282 5.863281zm0 0" fill="#4c4372"/><path d="m317.4375 321.132812h-208.523438c-3.238281 0-5.863281-2.625-5.863281-5.863281s2.625-5.863281 5.863281-5.863281h208.523438c3.238281 0 5.863281 2.625 5.863281 5.863281s-2.625 5.863281-5.863281 5.863281zm0 0" fill="#4c4372"/><path d="m317.4375 373.21875c-.007812 0-.011719 0-.015625 0l-208.523437-.628906c-3.238282-.007813-5.855469-2.640625-5.847657-5.878906.011719-3.230469 2.632813-5.84375 5.863281-5.84375h.019532l208.519531.625c3.238281.011718 5.855469 2.640624 5.847656 5.878906-.011719 3.230468-2.632812 5.847656-5.863281 5.847656zm0 0" fill="#4c4372"/></svg>