<svg height="512pt" viewBox="0 -49 512.001 512" width="512pt" xmlns="http://www.w3.org/2000/svg"><path d="m463 207c0 114.324219-92.675781 207-207 207-114.320312 0-207-92.675781-207-207s92.679688-207 207-207c114.324219 0 207 92.675781 207 207zm0 0" fill="#f0c48a"/><path d="m468.625 401.617188h-462.761719v-324.089844h500.273438v286.574218c0 20.71875-16.792969 37.515626-37.511719 37.515626zm0 0" fill="#fff"/><path d="m247.617188 227.003906h-57.535157c-10.398437 0-18.828125-8.429687-18.828125-18.832031v-48.25c0-10.398437 8.429688-18.828125 18.828125-18.828125h57.535157c10.398437 0 18.828124 8.429688 18.828124 18.828125v48.25c0 10.402344-8.429687 18.832031-18.828124 18.832031zm0 0" fill="#d3e6f8"/><path d="m247.617188 141.09375h-.355469v85.910156h.355469c10.398437 0 18.828124-8.429687 18.828124-18.828125v-48.253906c0-10.398437-8.429687-18.828125-18.828124-18.828125zm0 0" fill="#a4cff2"/><path d="m218.851562 371.59375c-35.910156 0-65.023437-29.109375-65.023437-65.019531v-58.214844h130.042969v58.214844c0 35.910156-29.109375 65.019531-65.019532 65.019531zm0 0" fill="#d3e6f8"/><path d="m261.292969 355.808594c13.820312-11.921875 22.578125-29.550782 22.578125-49.234375v-58.214844h-22.578125zm0 0" fill="#a4cff2"/><path d="m302.285156 383.222656c-10.167968 0-18.414062-8.242187-18.414062-18.414062v-116.449219h7.550781c16.171875 0 29.28125 13.109375 29.28125 29.28125v87.167969c0 10.171875-8.246094 18.414062-18.417969 18.414062zm0 0" fill="#d3e6f8"/><path d="m305.875 252.179688v130.691406c8.449219-1.671875 14.828125-9.121094 14.828125-18.0625v-87.167969c-.003906-10.914063-5.976563-20.425781-14.828125-25.460937zm0 0" fill="#a4cff2"/><path d="m135.414062 383.222656c10.171876 0 18.414063-8.242187 18.414063-18.414062v-116.449219h-7.546875c-16.171875 0-29.28125 13.109375-29.28125 29.28125v87.167969c0 10.171875 8.242188 18.414062 18.414062 18.414062zm0 0" fill="#d3e6f8"/><path d="m139 249.273438v133.597656c8.453125-1.671875 14.828125-9.117188 14.828125-18.0625v-116.449219h-7.546875c-2.515625 0-4.953125.316406-7.28125.914063zm0 0" fill="#a4cff2"/><path d="m209.195312 176.269531c0 6.386719-5.175781 11.5625-11.558593 11.5625-6.386719 0-11.5625-5.175781-11.5625-11.5625s5.175781-11.5625 11.5625-11.5625c6.382812 0 11.558593 5.175781 11.558593 11.5625zm0 0" fill="#fd919e"/><path d="m251.625 176.269531c0 6.386719-5.175781 11.5625-11.558594 11.5625-6.386718 0-11.5625-5.175781-11.5625-11.5625s5.175782-11.5625 11.5625-11.5625c6.382813 0 11.558594 5.175781 11.558594 11.5625zm0 0" fill="#fd919e"/><path d="m231.058594 112.308594c0 6.742187-5.464844 12.207031-12.207032 12.207031-6.742187 0-12.207031-5.464844-12.207031-12.207031 0-6.742188 5.464844-12.207032 12.207031-12.207032 6.742188 0 12.207032 5.464844 12.207032 12.207032zm0 0" fill="#fd919e"/><path d="m238.511719 291.246094c0 10.859375-8.804688 19.660156-19.660157 19.660156-10.859374 0-19.660156-8.800781-19.660156-19.660156 0-10.855469 8.800782-19.65625 19.660156-19.65625 10.855469 0 19.660157 8.800781 19.660157 19.65625zm0 0" fill="#fd919e"/><path d="m390.21875 401.617188h78.40625c20.71875 0 37.511719-16.792969 37.511719-37.511719v-286.578125h-115.917969zm0 0" fill="#d3e6f8"/><path d="m468.625 407.476562h-462.761719c-3.238281 0-5.863281-2.625-5.863281-5.859374v-324.089844c0-3.238282 2.625-5.863282 5.863281-5.863282h500.273438c3.238281 0 5.863281 2.625 5.863281 5.863282v286.574218c0 23.917969-19.457031 43.375-43.375 43.375zm-456.898438-11.722656h456.898438c17.453125 0 31.652344-14.199218 31.652344-31.652344v-280.714843h-488.550782zm0 0" fill="#4c4372"/><path d="m190.441406 227.003906h56.820313v21.355469h-56.820313zm0 0" fill="#7babf1"/><path d="m52.257812 100.101562h32.703126v32.703126h-32.703126zm0 0" fill="#fd919e"/><path d="m52.257812 257.867188h32.703126v125.355468h-32.703126zm0 0" fill="#fd919e"/><g fill="#4c4372"><path d="m247.617188 232.867188h-57.53125c-13.617188 0-24.695313-11.078126-24.695313-24.695313v-48.25c0-13.613281 11.078125-24.691406 24.695313-24.691406h57.53125c13.613281 0 24.691406 11.074219 24.691406 24.691406v48.25c0 13.617187-11.074219 24.695313-24.691406 24.695313zm-57.53125-85.910157c-7.152344 0-12.96875 5.816407-12.96875 12.964844v48.253906c0 7.148438 5.816406 12.964844 12.96875 12.964844h57.53125c7.152343 0 12.96875-5.816406 12.96875-12.964844v-48.253906c0-7.148437-5.816407-12.964844-12.96875-12.964844zm0 0"/><path d="m247.257812 254.222656h-56.816406c-3.238281 0-5.863281-2.625-5.863281-5.863281v-21.355469c0-3.238281 2.625-5.863281 5.863281-5.863281h56.816406c3.238282 0 5.863282 2.625 5.863282 5.863281v21.355469c0 3.238281-2.625 5.863281-5.863282 5.863281zm-50.953124-11.726562h45.089843v-9.628906h-45.089843zm0 0"/><path d="m197.636719 193.691406c-9.609375 0-17.425781-7.816406-17.425781-17.421875 0-9.609375 7.816406-17.425781 17.425781-17.425781 9.605469 0 17.421875 7.816406 17.421875 17.425781 0 9.605469-7.816406 17.421875-17.421875 17.421875zm0-23.121094c-3.144531 0-5.699219 2.554688-5.699219 5.699219 0 3.140625 2.554688 5.699219 5.699219 5.699219 3.140625 0 5.699219-2.558594 5.699219-5.699219 0-3.144531-2.558594-5.699219-5.699219-5.699219zm0 0"/><path d="m240.066406 193.691406c-9.609375 0-17.425781-7.816406-17.425781-17.421875 0-9.609375 7.816406-17.425781 17.425781-17.425781 9.605469 0 17.421875 7.816406 17.421875 17.425781 0 9.605469-7.816406 17.421875-17.421875 17.421875zm0-23.121094c-3.144531 0-5.699218 2.554688-5.699218 5.699219 0 3.140625 2.554687 5.699219 5.699218 5.699219 3.140625 0 5.695313-2.558594 5.695313-5.699219 0-3.144531-2.554688-5.699219-5.695313-5.699219zm0 0"/><path d="m218.851562 146.957031c-3.238281 0-5.863281-2.625-5.863281-5.863281v-16.578125c0-3.238281 2.625-5.863281 5.863281-5.863281 3.238282 0 5.863282 2.625 5.863282 5.863281v16.578125c0 3.238281-2.625 5.863281-5.863282 5.863281zm0 0"/><path d="m218.851562 130.378906c-9.964843 0-18.070312-8.105468-18.070312-18.070312s8.105469-18.070313 18.070312-18.070313c9.960938 0 18.070313 8.105469 18.070313 18.070313s-8.109375 18.070312-18.070313 18.070312zm0-24.414062c-3.5 0-6.347656 2.84375-6.347656 6.34375 0 3.496094 2.847656 6.34375 6.347656 6.34375 3.496094 0 6.34375-2.847656 6.34375-6.34375 0-3.5-2.847656-6.34375-6.34375-6.34375zm0 0"/><path d="m218.851562 377.457031c-39.085937 0-70.886718-31.800781-70.886718-70.882812v-58.214844c0-3.238281 2.625-5.863281 5.863281-5.863281h130.042969c3.238281 0 5.863281 2.625 5.863281 5.863281v58.214844c0 39.082031-31.796875 70.882812-70.882813 70.882812zm-59.160156-123.234375v52.351563c0 32.617187 26.539063 59.15625 59.160156 59.15625 32.617188 0 59.15625-26.539063 59.15625-59.15625v-52.351563zm0 0"/><path d="m135.414062 389.085938c-13.386718 0-24.277343-10.890626-24.277343-24.277344v-87.167969c0-19.378906 15.765625-35.144531 35.144531-35.144531h7.546875c3.238281 0 5.863281 2.625 5.863281 5.863281v116.449219c0 13.386718-10.890625 24.277344-24.277344 24.277344zm10.867188-134.863282c-12.914062 0-23.417969 10.503906-23.417969 23.417969v87.167969c0 6.921875 5.628907 12.554687 12.550781 12.554687 6.921876 0 12.550782-5.632812 12.550782-12.554687v-110.585938zm0 0"/><path d="m302.285156 389.085938c-13.386718 0-24.277344-10.890626-24.277344-24.277344v-116.449219c0-3.238281 2.625-5.863281 5.863282-5.863281h7.550781c19.378906 0 35.140625 15.765625 35.140625 35.144531v87.167969c0 13.386718-10.890625 24.277344-24.277344 24.277344zm-12.550781-134.863282v110.585938c0 6.921875 5.632813 12.554687 12.550781 12.554687 6.921875 0 12.554688-5.632812 12.554688-12.554687v-87.167969c0-12.914063-10.507813-23.417969-23.417969-23.417969zm0 0"/><path d="m153.828125 297.792969h-36.828125c-3.238281 0-5.863281-2.625-5.863281-5.863281 0-3.238282 2.625-5.863282 5.863281-5.863282h36.828125c3.238281 0 5.863281 2.625 5.863281 5.863282 0 3.238281-2.625 5.863281-5.863281 5.863281zm0 0"/><path d="m320.699219 297.792969h-36.828125c-3.238282 0-5.863282-2.625-5.863282-5.863281 0-3.238282 2.625-5.863282 5.863282-5.863282h36.828125c3.238281 0 5.863281 2.625 5.863281 5.863282 0 3.238281-2.625 5.863281-5.863281 5.863281zm0 0"/><path d="m218.851562 316.769531c-14.074218 0-25.523437-11.449219-25.523437-25.523437 0-14.070313 11.449219-25.519532 25.523437-25.519532 14.070313 0 25.519532 11.449219 25.519532 25.519532 0 14.074218-11.449219 25.523437-25.519532 25.523437zm0-39.320312c-7.609374 0-13.796874 6.191406-13.796874 13.796875 0 7.609375 6.1875 13.796875 13.796874 13.796875 7.605469 0 13.796876-6.1875 13.796876-13.796875 0-7.605469-6.191407-13.796875-13.796876-13.796875zm0 0"/><path d="m256.464844 339.828125h-75.226563c-3.238281 0-5.863281-2.625-5.863281-5.863281 0-3.238282 2.625-5.863282 5.863281-5.863282h75.226563c3.234375 0 5.859375 2.625 5.859375 5.863282 0 3.238281-2.625 5.863281-5.859375 5.863281zm0 0"/><path d="m367.386719 389.085938h-36.066407c-3.238281 0-5.863281-2.625-5.863281-5.863282 0-3.234375 2.625-5.859375 5.863281-5.859375h30.203126v-271.398437h-30.203126c-3.238281 0-5.863281-2.625-5.863281-5.863282 0-3.238281 2.625-5.863281 5.863281-5.863281h36.066407c3.238281 0 5.863281 2.625 5.863281 5.863281v283.121094c0 3.238282-2.625 5.863282-5.863281 5.863282zm0 0"/><path d="m390.21875 243.480469h-48.433594c-3.238281 0-5.863281-2.625-5.863281-5.863281 0-3.238282 2.625-5.863282 5.863281-5.863282h48.433594c3.238281 0 5.863281 2.625 5.863281 5.863282 0 3.238281-2.625 5.863281-5.863281 5.863281zm0 0"/><path d="m143.230469 168.886719h-90.972657c-3.238281 0-5.863281-2.625-5.863281-5.863281 0-3.238282 2.625-5.863282 5.863281-5.863282h90.972657c3.238281 0 5.863281 2.625 5.863281 5.863282 0 3.238281-2.625 5.863281-5.863281 5.863281zm0 0"/><path d="m143.230469 195.648438h-90.972657c-3.238281 0-5.863281-2.625-5.863281-5.863282 0-3.238281 2.625-5.863281 5.863281-5.863281h90.972657c3.238281 0 5.863281 2.625 5.863281 5.863281 0 3.238282-2.625 5.863282-5.863281 5.863282zm0 0"/><path d="m104.148438 222.40625h-51.890626c-3.238281 0-5.863281-2.625-5.863281-5.863281s2.625-5.863281 5.863281-5.863281h51.890626c3.238281 0 5.863281 2.625 5.863281 5.863281-.003907 3.238281-2.628907 5.863281-5.863281 5.863281zm0 0"/><path d="m266.445312 214.035156h-95.191406c-3.238281 0-5.863281-2.625-5.863281-5.863281s2.625-5.863281 5.863281-5.863281h95.191406c3.238282 0 5.863282 2.625 5.863282 5.863281s-2.625 5.863281-5.863282 5.863281zm0 0"/><path d="m84.960938 138.667969h-32.703126c-3.238281 0-5.863281-2.625-5.863281-5.863281v-32.703126c0-3.238281 2.625-5.863281 5.863281-5.863281h32.703126c3.238281 0 5.863281 2.625 5.863281 5.863281v32.703126c0 3.238281-2.625 5.863281-5.863281 5.863281zm-26.839844-11.726563h20.976562v-20.976562h-20.976562zm0 0"/><path d="m84.960938 389.085938h-32.703126c-3.238281 0-5.863281-2.625-5.863281-5.863282v-125.355468c0-3.238282 2.625-5.863282 5.863281-5.863282h32.703126c3.238281 0 5.863281 2.625 5.863281 5.863282v125.355468c0 3.238282-2.625 5.863282-5.863281 5.863282zm-26.839844-11.722657h20.976562v-113.632812h-20.976562zm0 0"/></g><path d="m420.480469 12.382812v318.394532h50.238281c19.5625 0 35.417969 15.859375 35.417969 35.421875v-316.300781c0-20.71875-16.792969-37.515626-37.511719-37.515626zm0 0" fill="#d3e6f8"/><path d="m506.136719 49.894531c0-20.71875-16.792969-37.511719-37.511719-37.511719h-5.316406v318.394532h7.410156c19.5625 0 35.417969 15.855468 35.417969 35.417968zm0 0" fill="#a4cff2"/><path d="m506.136719 372.058594c-3.238281 0-5.863281-2.625-5.863281-5.859375 0-16.300781-13.257813-29.558594-29.554688-29.558594h-50.238281c-3.238281 0-5.863281-2.625-5.863281-5.863281v-318.394532c0-3.234374 2.625-5.859374 5.863281-5.859374h48.144531c23.917969 0 43.375 19.457031 43.375 43.375v316.300781c0 3.234375-2.625 5.859375-5.863281 5.859375zm-79.792969-47.140625h44.375c11.574219 0 22.054688 4.785156 29.554688 12.488281v-287.507812c0-17.453126-14.195313-31.652344-31.648438-31.652344h-42.28125zm0 0" fill="#4c4372"/></svg>