<svg height="512pt" viewBox="0 -49 512.002 512" width="512pt" xmlns="http://www.w3.org/2000/svg"><path d="m463 207c0 114.324219-92.675781 207-207 207s-207-92.675781-207-207c0-114.320312 92.675781-207 207-207s207 92.679688 207 207zm0 0" fill="#f0c48a"/><path d="m444.886719 86.035156v-18.300781h-14.707031c-1.253907-6.074219-3.738282-11.710937-7.179688-16.660156l10.597656-10.597657-12.941406-12.9375-10.875 10.871094c-4.902344-3.125-10.4375-5.382812-16.382812-6.535156v-15.628906h-18.296876v15.628906c-5.945312 1.152344-11.480468 3.410156-16.382812 6.535156l-10.875-10.871094-12.941406 12.9375 10.597656 10.597657c-3.441406 4.949219-5.925781 10.585937-7.179688 16.660156h-14.707031v18.300781h14.707031c1.253907 6.074219 3.738282 11.714844 7.179688 16.660156l-10.597656 10.597657 12.941406 12.941406 10.875-10.875c4.902344 3.125 10.4375 5.382813 16.382812 6.535156v15.628907h18.300782v-15.628907c5.941406-1.152343 11.476562-3.410156 16.382812-6.535156l10.871094 10.875 12.941406-12.941406-10.59375-10.597657c3.441406-4.949218 5.921875-10.585937 7.175782-16.660156zm-60.636719 14.277344c-13.210938 0-23.921875-10.488281-23.921875-23.425781s10.710937-23.425781 23.921875-23.425781c13.214844 0 23.925781 10.488281 23.925781 23.425781s-10.710937 23.425781-23.925781 23.425781zm0 0" fill="#fd919e"/><path d="m393.402344 143.386719h-18.300782c-3.238281 0-5.863281-2.625-5.863281-5.863281v-11.019532c-3.304687-.960937-6.496093-2.238281-9.550781-3.824218l-7.699219 7.699218c-1.097656 1.097656-2.589843 1.714844-4.144531 1.714844s-3.046875-.617188-4.148438-1.714844l-12.9375-12.941406c-2.289062-2.289062-2.289062-6 0-8.289062l7.296876-7.300782c-1.78125-3.167968-3.210938-6.492187-4.277344-9.949218h-10.164063c-3.238281 0-5.863281-2.625-5.863281-5.863282v-18.300781c0-3.238281 2.625-5.863281 5.863281-5.863281h10.164063c1.066406-3.457032 2.492187-6.78125 4.277344-9.949219l-7.296876-7.300781c-2.289062-2.289063-2.289062-6 0-8.289063l12.9375-12.941406c1.101563-1.101563 2.59375-1.71875 4.148438-1.71875s3.046875.617187 4.144531 1.71875l7.699219 7.699219c3.054688-1.585938 6.246094-2.863282 9.550781-3.824219v-11.019531c0-3.234375 2.625-5.859375 5.863281-5.859375h18.300782c3.238281 0 5.863281 2.625 5.863281 5.859375v11.019531c3.300781.960937 6.496094 2.242187 9.550781 3.824219l7.699219-7.699219c2.289063-2.289063 6-2.289063 8.289063 0l12.941406 12.941406c1.097656 1.101563 1.71875 2.59375 1.71875 4.144531 0 1.554688-.621094 3.046876-1.71875 4.148438l-7.296875 7.296875c1.78125 3.167969 3.210937 6.492187 4.273437 9.949219h10.167969c3.238281 0 5.863281 2.625 5.863281 5.863281v18.300781c0 3.238282-2.625 5.863282-5.863281 5.863282h-10.167969c-1.0625 3.457031-2.492187 6.785156-4.273437 9.953124l7.296875 7.296876c1.097656 1.097656 1.71875 2.589843 1.71875 4.144531 0 1.554687-.621094 3.046875-1.71875 4.144531l-12.941406 12.941406c-2.289063 2.289063-6 2.289063-8.289063 0l-7.699219-7.699218c-3.054687 1.585937-6.246094 2.863281-9.550781 3.824218v11.019532c0 3.238281-2.625 5.863281-5.863281 5.863281zm-12.4375-11.726563h6.574218v-9.761718c0-2.808594 1.992188-5.222657 4.746094-5.757813 5.121094-.992187 9.949219-2.917969 14.347656-5.722656 2.316407-1.480469 5.351563-1.148438 7.296876.796875l6.726562 6.726562 4.652344-4.648437-6.453125-6.449219c-2.007813-2.007812-2.289063-5.167969-.667969-7.496094 3.074219-4.414062 5.175781-9.292968 6.25-14.496094.566406-2.722656 2.960938-4.675781 5.742188-4.675781h8.84375v-6.574219h-8.84375c-2.78125 0-5.179688-1.953124-5.742188-4.675781-1.074219-5.207031-3.175781-10.082031-6.25-14.5-1.621094-2.328125-1.339844-5.484375.667969-7.492187l6.453125-6.453125-4.652344-4.648438-6.726562 6.726563c-1.945313 1.949218-4.980469 2.277344-7.296876.800781-4.402343-2.808594-9.230468-4.734375-14.347656-5.726563-2.753906-.53125-4.746094-2.945312-4.746094-5.753906v-9.769531h-6.574218v9.765625c0 2.808594-1.992188 5.222656-4.75 5.757812-5.117188.988282-9.945313 2.917969-14.34375 5.722657-2.320313 1.480469-5.355469 1.148437-7.296875-.796875l-6.730469-6.730469-4.648438 4.652344 6.453126 6.449219c2.007812 2.007812 2.289062 5.164062.667968 7.496093-3.074218 4.414063-5.175781 9.289063-6.25 14.496094-.5625 2.722656-2.960937 4.675781-5.742187 4.675781h-8.84375v6.574219h8.84375c2.78125 0 5.179687 1.953125 5.742187 4.675781 1.074219 5.207032 3.175782 10.082032 6.25 14.496094 1.621094 2.332031 1.339844 5.488281-.667968 7.496094l-6.453126 6.449218 4.648438 4.652344 6.730469-6.730468c1.941406-1.945313 4.980469-2.277344 7.296875-.796876 4.398437 2.804688 9.226562 4.730469 14.347656 5.722657 2.753906.535156 4.746094 2.949219 4.746094 5.757812zm3.285156-25.484375c-16.425781 0-29.785156-13.140625-29.785156-29.289062 0-16.152344 13.359375-29.289063 29.785156-29.289063s29.785156 13.136719 29.785156 29.289063c0 16.148437-13.359375 29.289062-29.785156 29.289062zm0-46.855469c-9.957031 0-18.0625 7.878907-18.0625 17.566407 0 9.683593 8.101562 17.5625 18.0625 17.5625s18.0625-7.878907 18.0625-17.5625c0-9.6875-8.101562-17.566407-18.0625-17.566407zm0 0" fill="#4c4372"/><path d="m112.507812 357.335938h97.691407v40.417968h-97.691407zm0 0" fill="#a4cff2"/><path d="m179.40625 357.335938h30.792969v40.417968h-30.792969zm0 0" fill="#7babf1"/><path d="m221.710938 42.410156h21.796874v85.578125h-21.796874zm0 0" fill="#fff"/><path d="m79.203125 42.410156h21.792969v85.578125h-21.792969zm0 0" fill="#fff"/><path d="m79.203125 89.222656h21.792969v38.765625h-21.792969zm0 0" fill="#d3e6f8"/><path d="m221.710938 89.222656h21.796874v38.765625h-21.796874zm0 0" fill="#d3e6f8"/><path d="m100.996094 133.847656h-21.792969c-3.238281 0-5.863281-2.625-5.863281-5.863281v-85.574219c0-3.238281 2.625-5.863281 5.863281-5.863281h21.792969c3.238281 0 5.863281 2.625 5.863281 5.863281v85.574219c0 3.238281-2.625 5.863281-5.863281 5.863281zm-15.929688-11.722656h10.070313v-73.851562h-10.070313zm0 0" fill="#4c4372"/><path d="m243.507812 133.847656h-21.796874c-3.238282 0-5.863282-2.625-5.863282-5.863281v-85.574219c0-3.238281 2.625-5.863281 5.863282-5.863281h21.796874c3.234376 0 5.859376 2.625 5.859376 5.863281v85.574219c0 3.238281-2.625 5.863281-5.859376 5.863281zm-15.933593-11.722656h10.070312v-73.851562h-10.070312zm0 0" fill="#4c4372"/><path d="m258.769531 42.410156c0 14.445313-11.714843 26.160156-26.160156 26.160156-14.449219 0-26.164063-11.714843-26.164063-26.160156 0-14.449218 11.714844-26.164062 26.164063-26.164062 14.445313 0 26.160156 11.714844 26.160156 26.164062zm0 0" fill="#fd919e"/><path d="m247.808594 21.121094c1.703125 3.476562 2.664062 7.378906 2.664062 11.511718 0 14.445313-11.710937 26.160157-26.160156 26.160157-5.671875 0-10.914062-1.8125-15.199219-4.875 4.257813 8.675781 13.175781 14.652343 23.496094 14.652343 14.449219 0 26.160156-11.710937 26.160156-26.160156 0-8.777344-4.328125-16.542968-10.960937-21.289062zm0 0" fill="#e8677d"/><path d="m232.609375 74.433594c-17.660156 0-32.023437-14.367188-32.023437-32.023438 0-17.660156 14.363281-32.023437 32.023437-32.023437 17.65625 0 32.023437 14.363281 32.023437 32.023437 0 17.65625-14.367187 32.023438-32.023437 32.023438zm0-52.324219c-11.195313 0-20.300781 9.109375-20.300781 20.300781s9.105468 20.300782 20.300781 20.300782c11.191406 0 20.296875-9.109376 20.296875-20.300782s-9.105469-20.300781-20.296875-20.300781zm0 0" fill="#4c4372"/><path d="m116.261719 42.410156c0 14.445313-11.714844 26.160156-26.160157 26.160156-14.449218 0-26.164062-11.714843-26.164062-26.160156 0-14.449218 11.714844-26.164062 26.164062-26.164062 14.445313 0 26.160157 11.714844 26.160157 26.164062zm0 0" fill="#fd919e"/><path d="m105.300781 21.121094c1.703125 3.476562 2.664063 7.378906 2.664063 11.511718 0 14.445313-11.710938 26.160157-26.160156 26.160157-5.671876 0-10.914063-1.8125-15.199219-4.875 4.257812 8.675781 13.175781 14.652343 23.496093 14.652343 14.449219 0 26.160157-11.710937 26.160157-26.160156 0-8.777344-4.328125-16.542968-10.960938-21.289062zm0 0" fill="#e8677d"/><path d="m90.101562 74.433594c-17.660156 0-32.027343-14.367188-32.027343-32.023438 0-17.660156 14.367187-32.023437 32.027343-32.023437 17.65625 0 32.023438 14.363281 32.023438 32.023437 0 17.65625-14.367188 32.023438-32.023438 32.023438zm0-52.324219c-11.195312 0-20.300781 9.109375-20.300781 20.300781s9.105469 20.300782 20.300781 20.300782c11.191407 0 20.296876-9.109376 20.296876-20.300782s-9.105469-20.300781-20.296876-20.300781zm0 0" fill="#4c4372"/><path d="m256.28125 357.335938h-189.851562c-16.753907 0-30.332032-13.582032-30.332032-30.332032v-189.851562c0-16.753906 13.578125-30.332032 30.332032-30.332032h189.851562c16.75 0 30.328125 13.578126 30.328125 30.332032v189.851562c.003906 16.75-13.578125 30.332032-30.328125 30.332032zm0 0" fill="#d3e6f8"/><path d="m108.757812 275.222656h105.195313v51.105469h-105.195313zm0 0" fill="#fff"/><path d="m193.796875 275.222656h20.15625v51.105469h-20.15625zm0 0" fill="#d3e6f8"/><path d="m36.097656 327.003906c0 16.75 13.578125 30.332032 30.332032 30.332032h23.671874v-62.011719l-54.003906-18.605469zm0 0" fill="#a4cff2"/><path d="m286.613281 327.003906c0 16.75-13.582031 30.332032-30.332031 30.332032h-23.671875v-62.011719l54.003906-18.605469zm0 0" fill="#a4cff2"/><path d="m285.769531 130.066406c-3.191406-13.332031-15.179687-23.246094-29.488281-23.246094h-12.773438v250.515626h12.773438c14.308594 0 26.296875-9.917969 29.488281-23.25zm0 0" fill="#a4cff2"/><path d="m25.574219 247.5h10.523437v-91.46875h-10.523437c-10.886719 0-19.710938 8.828125-19.710938 19.714844v52.039062c0 10.890625 8.824219 19.714844 19.710938 19.714844zm0 0" fill="#7babf1"/><path d="m297.132812 247.5h-10.523437v-91.46875h10.523437c10.886719 0 19.714844 8.828125 19.714844 19.714844v52.039062c0 10.890625-8.828125 19.714844-19.714844 19.714844zm0 0" fill="#7babf1"/><path d="m132.355469 195.847656c0 20.007813-16.222657 36.230469-36.230469 36.230469s-36.230469-16.222656-36.230469-36.230469c0-20.011718 16.222657-36.230468 36.230469-36.230468s36.230469 16.21875 36.230469 36.230468zm0 0" fill="#fd919e"/><path d="m115.542969 165.265625c3.566406 5.613281 5.640625 12.265625 5.640625 19.40625 0 20.011719-16.21875 36.230469-36.230469 36.230469-7.144531 0-13.800781-2.078125-19.414063-5.648438 6.429688 10.109375 17.71875 16.824219 30.585938 16.824219 20.011719 0 36.230469-16.222656 36.230469-36.230469 0-12.863281-6.710938-24.152344-16.8125-30.582031zm0 0" fill="#e8677d"/><g fill="#4c4372"><path d="m256.28125 363.195312h-189.851562c-19.957032 0-36.195313-16.234374-36.195313-36.191406v-189.851562c0-19.957032 16.238281-36.195313 36.195313-36.195313h189.851562c19.957031 0 36.191406 16.238281 36.191406 36.195313v189.851562c0 19.957032-16.234375 36.191406-36.191406 36.191406zm-189.851562-250.511718c-13.492188 0-24.46875 10.972656-24.46875 24.464844v189.855468c0 13.488282 10.976562 24.464844 24.46875 24.464844h189.851562c13.492188 0 24.46875-10.976562 24.46875-24.464844v-189.851562c0-13.492188-10.976562-24.46875-24.46875-24.46875zm0 0"/><path d="m36.097656 253.363281h-10.523437c-14.101563 0-25.574219-11.472656-25.574219-25.578125v-52.039062c0-14.101563 11.472656-25.574219 25.574219-25.574219h10.523437c3.238282 0 5.863282 2.625 5.863282 5.863281v91.464844c0 3.238281-2.625 5.863281-5.863282 5.863281zm-10.523437-91.46875c-7.636719 0-13.847657 6.214844-13.847657 13.851563v52.039062c0 7.640625 6.210938 13.851563 13.847657 13.851563h4.660156v-79.742188zm0 0"/><path d="m297.132812 253.363281h-10.523437c-3.238281 0-5.863281-2.625-5.863281-5.863281v-91.46875c0-3.234375 2.625-5.859375 5.863281-5.859375h10.523437c14.101563 0 25.574219 11.472656 25.574219 25.574219v52.039062c0 14.105469-11.472656 25.578125-25.574219 25.578125zm-4.660156-11.726562h4.660156c7.636719 0 13.851563-6.210938 13.851563-13.851563v-52.039062c0-7.636719-6.214844-13.851563-13.851563-13.851563h-4.660156zm0 0"/><path d="m90.101562 363.195312c-3.238281 0-5.863281-2.625-5.863281-5.859374v-57.816407l-50.035156-17.074219c-3.0625-1.046874-4.699219-4.378906-3.652344-7.441406 1.042969-3.066406 4.375-4.699218 7.441407-3.65625l54 18.429688c2.375.808594 3.972656 3.039062 3.972656 5.546875v62.011719c0 3.234374-2.625 5.859374-5.863282 5.859374zm0 0"/><path d="m231.769531 363.195312c-3.238281 0-5.863281-2.625-5.863281-5.859374v-62.011719c0-2.507813 1.59375-4.738281 3.96875-5.546875l54.003906-18.429688c3.0625-1.042968 6.394532.589844 7.441406 3.65625 1.042969 3.0625-.589843 6.394532-3.65625 7.441406l-50.035156 17.074219v57.816407c.003906 3.234374-2.621094 5.859374-5.859375 5.859374zm0 0"/><path d="m213.953125 332.191406h-105.195313c-3.238281 0-5.863281-2.625-5.863281-5.863281v-51.105469c0-3.238281 2.625-5.863281 5.863281-5.863281h105.195313c3.238281 0 5.863281 2.625 5.863281 5.863281v51.105469c0 3.238281-2.625 5.863281-5.863281 5.863281zm-99.335937-11.722656h93.472656v-39.382812h-93.472656zm0 0"/><path d="m213.953125 306.640625h-105.195313c-3.238281 0-5.863281-2.625-5.863281-5.863281 0-3.238282 2.625-5.863282 5.863281-5.863282h105.195313c3.238281 0 5.863281 2.625 5.863281 5.863282 0 3.238281-2.625 5.863281-5.863281 5.863281zm0 0"/><path d="m143.304688 332.191406c-3.238282 0-5.863282-2.625-5.863282-5.863281v-51.105469c0-3.238281 2.625-5.863281 5.863282-5.863281 3.234374 0 5.859374 2.625 5.859374 5.863281v51.105469c0 3.238281-2.625 5.863281-5.859374 5.863281zm0 0"/><path d="m179.40625 332.191406c-3.238281 0-5.863281-2.625-5.863281-5.863281v-51.105469c0-3.238281 2.625-5.863281 5.863281-5.863281s5.863281 2.625 5.863281 5.863281v51.105469c0 3.238281-2.625 5.863281-5.863281 5.863281zm0 0"/><path d="m210.199219 403.617188h-97.691407c-3.238281 0-5.863281-2.625-5.863281-5.863282v-40.417968c0-3.238282 2.625-5.863282 5.863281-5.863282h97.691407c3.238281 0 5.863281 2.625 5.863281 5.863282v40.417968c0 3.238282-2.625 5.863282-5.863281 5.863282zm-91.828125-11.726563h85.96875v-28.695313h-85.96875zm0 0"/></g><path d="m262.8125 195.847656c0 20.007813-16.21875 36.230469-36.230469 36.230469-20.007812 0-36.230469-16.222656-36.230469-36.230469 0-20.011718 16.222657-36.230468 36.230469-36.230468 20.011719 0 36.230469 16.21875 36.230469 36.230468zm0 0" fill="#fd919e"/><path d="m246 165.265625c3.566406 5.613281 5.644531 12.265625 5.644531 19.40625 0 20.011719-16.222656 36.230469-36.230469 36.230469-7.148437 0-13.804687-2.078125-19.417968-5.648438 6.429687 10.109375 17.722656 16.824219 30.589844 16.824219 20.007812 0 36.226562-16.222656 36.226562-36.230469 0-12.863281-6.707031-24.152344-16.8125-30.582031zm0 0" fill="#e8677d"/><path d="m96.125 237.941406c-23.210938 0-42.09375-18.882812-42.09375-42.09375 0-23.207031 18.882812-42.09375 42.09375-42.09375s42.09375 18.882813 42.09375 42.09375c0 23.210938-18.882812 42.09375-42.09375 42.09375zm0-72.460937c-16.746094 0-30.367188 13.621093-30.367188 30.367187 0 16.742188 13.625 30.367188 30.367188 30.367188 16.746094 0 30.367188-13.625 30.367188-30.367188 0-16.746094-13.621094-30.367187-30.367188-30.367187zm0 0" fill="#4c4372"/><path d="m226.582031 237.941406c-23.210937 0-42.09375-18.882812-42.09375-42.09375 0-23.207031 18.882813-42.09375 42.09375-42.09375 23.210938 0 42.09375 18.882813 42.09375 42.09375 0 23.210938-18.882812 42.09375-42.09375 42.09375zm0-72.460937c-16.742187 0-30.367187 13.621093-30.367187 30.367187 0 16.742188 13.625 30.367188 30.367187 30.367188 16.746094 0 30.367188-13.625 30.367188-30.367188 0-16.746094-13.621094-30.367187-30.367188-30.367187zm0 0" fill="#4c4372"/><path d="m506.136719 267.117188h-46.027344v19.933593l11.503906 19.929688h-11.503906v75.992187c0 8.164063 6.617187 14.78125 14.78125 14.78125h16.464844c8.164062 0 14.78125-6.617187 14.78125-14.78125v-75.992187h-11.507813l11.507813-19.929688zm0 0" fill="#fd919e"/><path d="m460.109375 306.980469h23.011719v90.773437h8.234375c8.164062 0 14.78125-6.617187 14.78125-14.78125v-75.992187h-11.507813l11.507813-19.929688h-46.027344l11.503906 19.929688zm0 0" fill="#e8677d"/><path d="m490.78125 97.199219-7.660156-20.3125-7.65625 20.3125v169.917969h15.316406zm0 0" fill="#fff"/><path d="m491.355469 403.617188h-16.464844c-11.382813 0-20.644531-9.261719-20.644531-20.644532v-75.992187c0-3.238281 2.625-5.863281 5.863281-5.863281h46.027344c3.238281 0 5.863281 2.625 5.863281 5.863281v75.992187c0 11.382813-9.261719 20.644532-20.644531 20.644532zm-25.382813-90.773438v70.128906c0 4.917969 4 8.917969 8.917969 8.917969h16.464844c4.917969 0 8.917969-4 8.917969-8.917969v-70.128906zm0 0" fill="#4c4372"/><path d="m494.628906 312.84375h-23.011718c-2.09375 0-4.03125-1.117188-5.078126-2.933594l-11.507812-19.929687c-.511719-.890625-.785156-1.902344-.785156-2.929688v-19.929687c0-3.238282 2.625-5.863282 5.863281-5.863282h46.03125c3.238281 0 5.863281 2.625 5.863281 5.863282v19.929687c0 1.027344-.273437 2.039063-.785156 2.929688l-11.507812 19.929687c-1.050782 1.816406-2.984376 2.933594-5.082032 2.933594zm-19.628906-11.726562h16.246094l9.027344-15.636719v-12.5h-34.300782v12.5zm0 0" fill="#4c4372"/><path d="m483.121094 403.617188c-3.234375 0-5.859375-2.625-5.859375-5.863282v-90.773437c0-3.238281 2.625-5.863281 5.859375-5.863281 3.238281 0 5.863281 2.625 5.863281 5.863281v90.773437c0 3.238282-2.625 5.863282-5.863281 5.863282zm0 0" fill="#4c4372"/><path d="m490.78125 272.980469h-15.316406c-3.238282 0-5.863282-2.625-5.863282-5.863281v-169.917969c0-.707031.128907-1.40625.378907-2.070313l7.65625-20.3125c.859375-2.28125 3.046875-3.792968 5.484375-3.792968 2.441406 0 4.625 1.511718 5.488281 3.792968l7.65625 20.3125c.25.660156.375 1.363282.375 2.070313v169.917969c0 3.238281-2.625 5.863281-5.859375 5.863281zm-9.453125-11.722657h3.589844v-162.992187l-1.796875-4.757813-1.792969 4.757813zm0 0" fill="#4c4372"/><path d="m506.136719 292.910156h-46.027344c-3.238281 0-5.863281-2.625-5.863281-5.859375 0-3.238281 2.625-5.863281 5.863281-5.863281h46.027344c3.238281 0 5.863281 2.625 5.863281 5.863281 0 3.234375-2.625 5.859375-5.863281 5.859375zm0 0" fill="#4c4372"/></svg>