<svg height="512pt" viewBox="0 0 512 512" width="512pt" xmlns="http://www.w3.org/2000/svg"><path d="m463 256c0 114.324219-92.675781 207-207 207s-207-92.675781-207-207 92.675781-207 207-207 207 92.675781 207 207zm0 0" fill="#f0c48a"/><path d="m423.746094 209.851562v110.785157c0 16.183593-13.117188 29.300781-29.300782 29.300781h-110.070312v36.683594h111.230469c37.132812 0 67.238281-30.101563 67.238281-67.234375v-109.535157zm0 0" fill="#fff"/><path d="m423.746094 209.851562h39.097656v37.789063h-39.097656zm0 0" fill="#d3e6f8"/><path d="m395.605469 392.484375h-111.230469c-3.238281 0-5.863281-2.625-5.863281-5.863281v-36.683594c0-3.238281 2.625-5.863281 5.863281-5.863281h110.070312c12.925782 0 23.4375-10.511719 23.4375-23.4375v-110.785157c0-3.238281 2.625-5.863281 5.863282-5.863281h39.097656c3.238281 0 5.863281 2.625 5.863281 5.863281v109.535157c0 40.304687-32.792969 73.097656-73.101562 73.097656zm-105.367188-11.726563h105.367188c33.84375 0 61.375-27.53125 61.375-61.371093v-103.671875h-27.371094v104.925781c0 19.386719-15.773437 35.160156-35.164063 35.160156h-104.207031zm0 0" fill="#4c4372"/><path d="m483.273438 209.851562h-83.15625c-12.628907 0-22.863282-10.234374-22.863282-22.863281v-114.753906c0-12.625 10.234375-22.863281 22.863282-22.863281h83.15625c12.628906 0 22.863281 10.238281 22.863281 22.863281v114.753906c0 12.628907-10.234375 22.863281-22.863281 22.863281zm0 0" fill="#d3e6f8"/><path d="m483.273438 49.371094h-3.015626v160.480468h3.015626c12.628906 0 22.863281-10.234374 22.863281-22.863281v-114.753906c0-12.625-10.234375-22.863281-22.863281-22.863281zm0 0" fill="#a4cff2"/><path d="m483.273438 215.714844h-83.15625c-15.839844 0-28.726563-12.886719-28.726563-28.726563v-114.75c0-15.839843 12.886719-28.726562 28.726563-28.726562h83.15625c15.839843 0 28.726562 12.886719 28.726562 28.726562v114.75c0 15.839844-12.886719 28.726563-28.726562 28.726563zm-83.15625-160.480469c-9.375 0-17 7.628906-17 17.003906v114.75c0 9.375 7.625 17 17 17h83.15625c9.375 0 17-7.625 17-17v-114.75c0-9.375-7.625-17.003906-17-17.003906zm0 0" fill="#4c4372"/><path d="m417.199219 84.945312h47.238281l-12.09375 31.882813h22.492188l-51.871094 57.449219 8.644531-44.664063h-23.054687zm0 0" fill="#fd919e"/><path d="m422.964844 180.140625c-.890625 0-1.785156-.199219-2.617188-.617187-2.355468-1.175782-3.636718-3.773438-3.136718-6.359376l7.292968-37.6875h-15.949218c-1.75 0-3.40625-.785156-4.519532-2.132812-1.113281-1.351562-1.566406-3.128906-1.234375-4.847656l8.644531-44.664063c.53125-2.757812 2.949219-4.75 5.753907-4.75h47.238281c1.925781 0 3.726562.949219 4.824219 2.53125 1.09375 1.585938 1.339843 3.609375.65625 5.410157l-9.078125 23.941406h13.996094c2.316406 0 4.414062 1.363281 5.355468 3.480468.941406 2.117188.546875 4.589844-1.007812 6.308594l-51.867188 57.449219c-1.140625 1.265625-2.734375 1.9375-4.351562 1.9375zm-7.304688-56.390625h15.949219c1.75 0 3.410156.78125 4.523437 2.132812 1.113282 1.347657 1.566407 3.125 1.234376 4.84375l-4.644532 24 28.921875-32.035156h-9.296875c-1.925781 0-3.730468-.949218-4.824218-2.53125-1.09375-1.585937-1.34375-3.609375-.660157-5.410156l9.078125-23.941406h-33.902344zm0 0" fill="#4c4372"/><path d="m33.023438 407.34375c15 0 27.160156-12.160156 27.160156-27.160156v-161.90625h-27.160156c-15 0-27.160157 12.160156-27.160157 27.160156v134.746094c0 15 12.160157 27.160156 27.160157 27.160156zm0 0" fill="#d3e6f8"/><path d="m334.410156 407.34375c-15 0-27.160156-12.160156-27.160156-27.160156v-161.90625h27.160156c15 0 27.160156 12.160156 27.160156 27.160156v134.746094c0 15-12.160156 27.160156-27.160156 27.160156zm0 0" fill="#d3e6f8"/><path d="m338.234375 408.484375v-194.234375c11.636719 0 21.070313 9.433594 21.070313 21.070312v152.09375c0 11.636719-9.433594 21.070313-21.070313 21.070313zm0 0" fill="#a4cff2"/><path d="m39.113281 408.484375v-194.234375c11.636719 0 21.070313 9.433594 21.070313 21.070312v152.09375c0 11.636719-9.433594 21.070313-21.070313 21.070313zm0 0" fill="#a4cff2"/><path d="m267.664062 465.339844h-167.894531c-21.863281 0-39.585937-17.722656-39.585937-39.582032v-207.480468h247.0625v207.480468c0 21.859376-17.71875 39.582032-39.582032 39.582032zm0 0" fill="#d3e6f8"/><path d="m276.214844 462.101562c17.066406 0 30.902344-13.835937 30.902344-30.902343v-212.921875h-30.902344zm0 0" fill="#a4cff2"/><path d="m149.097656 506.136719h-123.296875v-13.683594c0-14.972656 12.136719-27.113281 27.113281-27.113281h96.183594zm0 0" fill="#d3e6f8"/><path d="m341.632812 506.136719h-123.296874v-40.796875h96.183593c14.972657 0 27.113281 12.140625 27.113281 27.113281zm0 0" fill="#d3e6f8"/><path d="m307.246094 501.355469h31.238281v-20.460938c0-5.949219-4.824219-10.773437-10.777344-10.773437h-20.460937zm0 0" fill="#a4cff2"/><path d="m117.945312 501.355469h31.234376v-20.460938c0-5.949219-4.824219-10.773437-10.773438-10.773437h-20.460938zm0 0" fill="#a4cff2"/><path d="m203.617188 75.226562h-39.800782c-57.234375 0-103.632812 46.398438-103.632812 103.632813h247.0625c0-57.234375-46.394532-103.632813-103.628906-103.632813zm0 0" fill="#a4cff2"/><path d="m170.378906 75.226562h-4.355468c-58.453126 0-105.839844 46.398438-105.839844 103.632813h216.03125c0-57.234375-47.386719-103.632813-105.835938-103.632813zm0 0" fill="#d3e6f8"/><path d="m144.6875 152.460938c-6.839844 0-12.386719-5.542969-12.386719-12.382813v-15.011719c0-6.839844 5.546875-12.386718 12.386719-12.386718s12.382812 5.546874 12.382812 12.386718v15.011719c0 6.839844-5.542968 12.382813-12.382812 12.382813zm0 0" fill="#fff"/><path d="m222.746094 152.460938c-6.839844 0-12.382813-5.542969-12.382813-12.382813v-15.011719c0-6.839844 5.542969-12.386718 12.382813-12.386718 6.84375 0 12.386718 5.546874 12.386718 12.386718v15.011719c0 6.839844-5.542968 12.382813-12.386718 12.382813zm0 0" fill="#fff"/><path d="m199.859375 22.003906c0 8.914063-7.226563 16.140625-16.140625 16.140625-8.917969 0-16.144531-7.226562-16.144531-16.140625 0-8.914062 7.226562-16.140625 16.144531-16.140625 8.914062 0 16.140625 7.226563 16.140625 16.140625zm0 0" fill="#fd919e"/><path d="m241.941406 403.550781h-116.449218c-11.328126 0-20.507813-9.179687-20.507813-20.503906v-99.949219c0-11.324218 9.179687-20.507812 20.507813-20.507812h116.449218c11.328125 0 20.507813 9.183594 20.507813 20.507812v99.949219c0 11.324219-9.179688 20.503906-20.507813 20.503906zm0 0" fill="#fd919e"/><path d="m104.984375 178.859375h157.464844v39.417969h-157.464844zm0 0" fill="#7babf1"/><g fill="#4c4372"><path d="m307.246094 184.722656h-247.0625c-3.238282 0-5.863282-2.625-5.863282-5.863281 0-60.375 49.121094-109.496094 109.496094-109.496094h39.796875c60.378907 0 109.496094 49.121094 109.496094 109.496094 0 3.238281-2.625 5.863281-5.863281 5.863281zm-241.023438-11.726562h234.988282c-3.039063-51.191406-45.652344-91.90625-97.597657-91.90625h-39.796875c-51.941406 0-94.554687 40.714844-97.59375 91.90625zm0 0"/><path d="m267.664062 471.203125h-167.894531c-25.058593 0-45.449219-20.386719-45.449219-45.445313v-207.480468c0-3.238282 2.625-5.863282 5.863282-5.863282h247.0625c3.238281 0 5.863281 2.625 5.863281 5.863282v207.480468c0 25.058594-20.386719 45.445313-45.445313 45.445313zm-201.617187-247.0625v201.617187c0 18.589844 15.128906 33.71875 33.722656 33.71875h167.894531c18.59375 0 33.722657-15.128906 33.722657-33.71875v-201.617187zm0 0"/><path d="m334.410156 413.207031c-18.210937 0-33.023437-14.816406-33.023437-33.023437v-161.90625c0-3.238282 2.625-5.863282 5.859375-5.863282h27.164062c18.207032 0 33.023438 14.816407 33.023438 33.023438v134.746094c0 18.207031-14.816406 33.023437-33.023438 33.023437zm-21.300781-189.066406v156.042969c0 11.742187 9.554687 21.296875 21.300781 21.296875 11.742188 0 21.300782-9.554688 21.300782-21.296875v-134.746094c0-11.742188-9.554688-21.296875-21.300782-21.296875zm0 0"/><path d="m33.023438 413.207031c-18.207032 0-33.023438-14.816406-33.023438-33.023437v-134.746094c0-18.207031 14.816406-33.023438 33.023438-33.023438h27.160156c3.238281 0 5.863281 2.625 5.863281 5.863282v161.90625c0 18.207031-14.8125 33.023437-33.023437 33.023437zm0-189.066406c-11.742188 0-21.296876 9.550781-21.296876 21.296875v134.746094c0 11.742187 9.550782 21.296875 21.296876 21.296875 11.746093 0 21.300781-9.554688 21.300781-21.296875v-156.042969zm0 0"/><path d="m262.449219 224.140625h-157.464844c-3.238281 0-5.863281-2.625-5.863281-5.863281v-39.417969c0-3.238281 2.625-5.863281 5.863281-5.863281h157.464844c3.238281 0 5.863281 2.625 5.863281 5.863281v39.417969c0 3.238281-2.625 5.863281-5.863281 5.863281zm-151.601563-11.726563h145.738282v-27.691406h-145.738282zm0 0"/><path d="m144.6875 158.324219c-10.0625 0-18.25-8.1875-18.25-18.246094v-15.011719c0-10.0625 8.1875-18.25 18.25-18.25 10.058594 0 18.246094 8.1875 18.246094 18.25v15.011719c0 10.058594-8.1875 18.246094-18.246094 18.246094zm0-39.78125c-3.597656 0-6.523438 2.925781-6.523438 6.523437v15.011719c0 3.59375 2.925782 6.519531 6.523438 6.519531 3.59375 0 6.519531-2.921875 6.519531-6.519531v-15.011719c0-3.597656-2.925781-6.523437-6.519531-6.523437zm0 0"/><path d="m222.746094 158.324219c-10.058594 0-18.246094-8.1875-18.246094-18.246094v-15.011719c0-10.0625 8.1875-18.25 18.246094-18.25 10.0625 0 18.25 8.1875 18.25 18.25v15.011719c0 10.058594-8.1875 18.246094-18.25 18.246094zm0-39.78125c-3.59375 0-6.519532 2.925781-6.519532 6.523437v15.011719c0 3.59375 2.925782 6.519531 6.519532 6.519531 3.597656 0 6.523437-2.921875 6.523437-6.519531v-15.011719c0-3.597656-2.925781-6.523437-6.523437-6.523437zm0 0"/><path d="m149.097656 512h-123.296875c-3.238281 0-5.863281-2.625-5.863281-5.863281v-13.683594c0-18.183594 14.792969-32.976563 32.976562-32.976563h96.183594c3.238282 0 5.863282 2.625 5.863282 5.863282v40.796875c0 3.238281-2.625 5.863281-5.863282 5.863281zm-117.4375-11.726562h111.574219v-29.070313h-90.320313c-11.71875 0-21.253906 9.53125-21.253906 21.25zm0 0"/><path d="m341.632812 512h-123.296874c-3.238282 0-5.863282-2.625-5.863282-5.863281v-40.796875c0-3.238282 2.625-5.863282 5.863282-5.863282h96.183593c18.183594 0 32.976563 14.792969 32.976563 32.976563v13.683594c0 3.238281-2.625 5.863281-5.863282 5.863281zm-117.433593-11.726562h111.574219v-7.820313c0-11.71875-9.535157-21.25-21.253907-21.25h-90.320312zm0 0"/><path d="m183.71875 44.007812c-12.132812 0-22.003906-9.871093-22.003906-22.003906 0-12.132812 9.871094-22.003906 22.003906-22.003906s22.003906 9.871094 22.003906 22.003906c0 12.132813-9.871094 22.003906-22.003906 22.003906zm0-32.28125c-5.667969 0-10.28125 4.609376-10.28125 10.277344 0 5.667969 4.613281 10.28125 10.28125 10.28125s10.277344-4.613281 10.277344-10.28125c0-5.667968-4.609375-10.277344-10.277344-10.277344zm0 0"/><path d="m183.71875 81.089844c-3.238281 0-5.863281-2.625-5.863281-5.863282v-37.082031c0-3.238281 2.625-5.863281 5.863281-5.863281 3.234375 0 5.859375 2.625 5.859375 5.863281v37.082031c0 3.238282-2.625 5.863282-5.859375 5.863282zm0 0"/><path d="m361.570312 291.546875h-54.320312c-3.238281 0-5.863281-2.625-5.863281-5.863281 0-3.238282 2.625-5.863282 5.863281-5.863282h54.320312c3.238282 0 5.863282 2.625 5.863282 5.863282 0 3.238281-2.625 5.863281-5.863282 5.863281zm0 0"/><path d="m60.183594 291.546875h-54.320313c-3.238281 0-5.863281-2.625-5.863281-5.863281 0-3.238282 2.625-5.863282 5.863281-5.863282h54.324219c3.238281 0 5.863281 2.625 5.863281 5.863282-.003906 3.238281-2.628906 5.863281-5.867187 5.863281zm0 0"/></g><path d="m231.871094 402.878906c16.886718 0 30.578125-13.6875 30.578125-30.578125v-77.898437c0-16.890625-13.6875-30.582032-30.578125-30.582032zm0 0" fill="#e8677d"/><path d="m241.941406 409.414062h-116.449218c-14.542969 0-26.371094-11.828124-26.371094-26.367187v-99.949219c0-14.539062 11.828125-26.367187 26.371094-26.367187h116.449218c14.542969 0 26.371094 11.828125 26.371094 26.367187v99.949219c0 14.539063-11.828125 26.367187-26.371094 26.367187zm-116.449218-140.960937c-8.078126 0-14.644532 6.570313-14.644532 14.644531v99.949219c0 8.074219 6.570313 14.644531 14.644532 14.644531h116.449218c8.074219 0 14.644532-6.570312 14.644532-14.644531v-99.949219c0-8.074218-6.570313-14.644531-14.644532-14.644531zm0 0" fill="#4c4372"/><path d="m131.808594 285.683594h103.816406v59.53125h-103.816406zm0 0" fill="#fff"/><path d="m215.882812 285.683594h21.355469v62.109375h-21.355469zm0 0" fill="#d3e6f8"/><path d="m235.625 351.078125h-103.816406c-3.238282 0-5.863282-2.625-5.863282-5.863281v-59.53125c0-3.238282 2.625-5.863282 5.863282-5.863282h103.816406c3.238281 0 5.863281 2.625 5.863281 5.863282v59.53125c0 3.238281-2.625 5.863281-5.863281 5.863281zm-97.953125-11.726563h92.089844v-47.804687h-92.089844zm0 0" fill="#4c4372"/><path d="m148.183594 373.855469c0 4.035156-3.273438 7.308593-7.3125 7.308593-4.035156 0-7.308594-3.273437-7.308594-7.308593 0-4.039063 3.273438-7.3125 7.308594-7.3125 4.039062 0 7.3125 3.273437 7.3125 7.3125zm0 0" fill="#4c4372"/><path d="m176.746094 373.855469c0 4.035156-3.273438 7.308593-7.308594 7.308593-4.039062 0-7.3125-3.273437-7.3125-7.308593 0-4.039063 3.273438-7.3125 7.3125-7.3125 4.035156 0 7.308594 3.273437 7.308594 7.3125zm0 0" fill="#4c4372"/><path d="m205.308594 373.855469c0 4.035156-3.273438 7.308593-7.3125 7.308593-4.035156 0-7.308594-3.273437-7.308594-7.308593 0-4.039063 3.273438-7.3125 7.308594-7.3125 4.039062 0 7.3125 3.273437 7.3125 7.3125zm0 0" fill="#4c4372"/><path d="m233.871094 373.855469c0 4.035156-3.273438 7.308593-7.308594 7.308593-4.039062 0-7.3125-3.273437-7.3125-7.308593 0-4.039063 3.273438-7.3125 7.3125-7.3125 4.035156 0 7.308594 3.273437 7.308594 7.3125zm0 0" fill="#4c4372"/></svg>